<mxfile host="app.diagrams.net" modified="2023-12-09T03:43:59.003Z" agent="Mozilla/5.0 (Windows NT 10.0; Win64; x64) AppleWebKit/537.36 (KHTML, like Gecko) Chrome/120.0.0.0 Safari/537.36" etag="fhDQVarTWiILDdbcVlmt" version="22.1.7" type="device">
  <diagram name="Page-1" id="ugXmp65DAwLjP9m1NUtT">
    <mxGraphModel dx="1050" dy="534" grid="1" gridSize="10" guides="1" tooltips="1" connect="1" arrows="1" fold="1" page="1" pageScale="1" pageWidth="827" pageHeight="1169" math="0" shadow="0">
      <root>
        <mxCell id="0" />
        <mxCell id="1" parent="0" />
        <mxCell id="T-PEfcv2sNG8sx51Y1Ed-10" value="" style="rounded=0;whiteSpace=wrap;html=1;" vertex="1" parent="1">
          <mxGeometry x="30" y="60" width="780" height="590" as="geometry" />
        </mxCell>
        <mxCell id="T-PEfcv2sNG8sx51Y1Ed-2" value="DATA SET&lt;br&gt;" style="sketch=0;outlineConnect=0;fontColor=#232F3E;gradientColor=none;fillColor=#7AA116;strokeColor=none;dashed=0;verticalLabelPosition=bottom;verticalAlign=top;align=center;html=1;fontSize=12;fontStyle=0;aspect=fixed;pointerEvents=1;shape=mxgraph.aws4.data_set;" vertex="1" parent="1">
          <mxGeometry x="110" y="150" width="63" height="78" as="geometry" />
        </mxCell>
        <mxCell id="T-PEfcv2sNG8sx51Y1Ed-4" style="edgeStyle=orthogonalEdgeStyle;rounded=0;orthogonalLoop=1;jettySize=auto;html=1;entryX=0;entryY=0.5;entryDx=0;entryDy=0;entryPerimeter=0;" edge="1" parent="1" source="T-PEfcv2sNG8sx51Y1Ed-2">
          <mxGeometry relative="1" as="geometry">
            <mxPoint x="220" y="189" as="targetPoint" />
          </mxGeometry>
        </mxCell>
        <mxCell id="T-PEfcv2sNG8sx51Y1Ed-6" style="edgeStyle=orthogonalEdgeStyle;rounded=0;orthogonalLoop=1;jettySize=auto;html=1;" edge="1" parent="1" source="T-PEfcv2sNG8sx51Y1Ed-5">
          <mxGeometry relative="1" as="geometry">
            <mxPoint x="350" y="189" as="targetPoint" />
          </mxGeometry>
        </mxCell>
        <mxCell id="T-PEfcv2sNG8sx51Y1Ed-16" value="raw &lt;br&gt;tweets&lt;br&gt;" style="edgeLabel;html=1;align=center;verticalAlign=middle;resizable=0;points=[];" vertex="1" connectable="0" parent="T-PEfcv2sNG8sx51Y1Ed-6">
          <mxGeometry x="-0.0724" y="-2" relative="1" as="geometry">
            <mxPoint as="offset" />
          </mxGeometry>
        </mxCell>
        <mxCell id="T-PEfcv2sNG8sx51Y1Ed-5" value="Kafka Producer" style="verticalLabelPosition=bottom;aspect=fixed;html=1;shape=mxgraph.salesforce.stream2;" vertex="1" parent="1">
          <mxGeometry x="230" y="159" width="60" height="60" as="geometry" />
        </mxCell>
        <mxCell id="T-PEfcv2sNG8sx51Y1Ed-14" style="edgeStyle=orthogonalEdgeStyle;rounded=0;orthogonalLoop=1;jettySize=auto;html=1;" edge="1" parent="1" source="T-PEfcv2sNG8sx51Y1Ed-7" target="T-PEfcv2sNG8sx51Y1Ed-11">
          <mxGeometry relative="1" as="geometry" />
        </mxCell>
        <mxCell id="T-PEfcv2sNG8sx51Y1Ed-15" value="Raw Tweets&lt;br&gt;" style="edgeLabel;html=1;align=center;verticalAlign=middle;resizable=0;points=[];" vertex="1" connectable="0" parent="T-PEfcv2sNG8sx51Y1Ed-14">
          <mxGeometry x="-0.0375" y="1" relative="1" as="geometry">
            <mxPoint as="offset" />
          </mxGeometry>
        </mxCell>
        <mxCell id="T-PEfcv2sNG8sx51Y1Ed-7" value="Tweets Topic" style="rounded=1;whiteSpace=wrap;html=1;" vertex="1" parent="1">
          <mxGeometry x="370" y="159" width="100" height="60" as="geometry" />
        </mxCell>
        <mxCell id="T-PEfcv2sNG8sx51Y1Ed-8" value="Elastic Search db" style="outlineConnect=0;dashed=0;verticalLabelPosition=bottom;verticalAlign=top;align=center;html=1;shape=mxgraph.aws3.elasticsearch_service;fillColor=#F58534;gradientColor=none;" vertex="1" parent="1">
          <mxGeometry x="260" y="504" width="67.5" height="81" as="geometry" />
        </mxCell>
        <mxCell id="T-PEfcv2sNG8sx51Y1Ed-9" value="" style="image;sketch=0;aspect=fixed;html=1;points=[];align=center;fontSize=12;image=img/lib/mscae/Docker.svg;" vertex="1" parent="1">
          <mxGeometry x="730" y="90" width="50" height="41" as="geometry" />
        </mxCell>
        <mxCell id="T-PEfcv2sNG8sx51Y1Ed-18" style="edgeStyle=orthogonalEdgeStyle;rounded=0;orthogonalLoop=1;jettySize=auto;html=1;" edge="1" parent="1" source="T-PEfcv2sNG8sx51Y1Ed-11" target="T-PEfcv2sNG8sx51Y1Ed-17">
          <mxGeometry relative="1" as="geometry" />
        </mxCell>
        <mxCell id="T-PEfcv2sNG8sx51Y1Ed-11" value="APACHE SPARK&lt;br&gt;" style="dashed=0;outlineConnect=0;html=1;align=center;labelPosition=center;verticalLabelPosition=bottom;verticalAlign=top;shape=mxgraph.weblogos.apache" vertex="1" parent="1">
          <mxGeometry x="630" y="146.4" width="42.6" height="85.2" as="geometry" />
        </mxCell>
        <mxCell id="T-PEfcv2sNG8sx51Y1Ed-13" style="edgeStyle=orthogonalEdgeStyle;rounded=0;orthogonalLoop=1;jettySize=auto;html=1;" edge="1" parent="1" source="T-PEfcv2sNG8sx51Y1Ed-12" target="T-PEfcv2sNG8sx51Y1Ed-11">
          <mxGeometry relative="1" as="geometry" />
        </mxCell>
        <mxCell id="T-PEfcv2sNG8sx51Y1Ed-12" value="NLP Model&lt;br&gt;" style="sketch=0;outlineConnect=0;fontColor=#232F3E;gradientColor=none;strokeColor=#ffffff;fillColor=#232F3E;dashed=0;verticalLabelPosition=middle;verticalAlign=bottom;align=center;html=1;whiteSpace=wrap;fontSize=10;fontStyle=1;spacing=3;shape=mxgraph.aws4.productIcon;prIcon=mxgraph.aws4.sagemaker;" vertex="1" parent="1">
          <mxGeometry x="740" y="150" width="50" height="79" as="geometry" />
        </mxCell>
        <mxCell id="T-PEfcv2sNG8sx51Y1Ed-22" style="edgeStyle=orthogonalEdgeStyle;rounded=0;orthogonalLoop=1;jettySize=auto;html=1;" edge="1" parent="1" source="T-PEfcv2sNG8sx51Y1Ed-17" target="T-PEfcv2sNG8sx51Y1Ed-21">
          <mxGeometry relative="1" as="geometry" />
        </mxCell>
        <mxCell id="T-PEfcv2sNG8sx51Y1Ed-23" value="Processed Tweets&lt;br&gt;" style="edgeLabel;html=1;align=center;verticalAlign=middle;resizable=0;points=[];" vertex="1" connectable="0" parent="T-PEfcv2sNG8sx51Y1Ed-22">
          <mxGeometry x="0.1234" y="2" relative="1" as="geometry">
            <mxPoint as="offset" />
          </mxGeometry>
        </mxCell>
        <mxCell id="T-PEfcv2sNG8sx51Y1Ed-17" value="Processed Tweet Topic&lt;br&gt;" style="rounded=0;whiteSpace=wrap;html=1;" vertex="1" parent="1">
          <mxGeometry x="570" y="310" width="120" height="60" as="geometry" />
        </mxCell>
        <mxCell id="T-PEfcv2sNG8sx51Y1Ed-20" value="Kafka Producer" style="verticalLabelPosition=bottom;aspect=fixed;html=1;shape=mxgraph.salesforce.stream2;" vertex="1" parent="1">
          <mxGeometry x="230" y="159" width="60" height="60" as="geometry" />
        </mxCell>
        <mxCell id="T-PEfcv2sNG8sx51Y1Ed-26" style="edgeStyle=orthogonalEdgeStyle;rounded=0;orthogonalLoop=1;jettySize=auto;html=1;" edge="1" parent="1" source="T-PEfcv2sNG8sx51Y1Ed-21" target="T-PEfcv2sNG8sx51Y1Ed-8">
          <mxGeometry relative="1" as="geometry" />
        </mxCell>
        <mxCell id="T-PEfcv2sNG8sx51Y1Ed-21" value="Kafka Consumer&lt;br&gt;" style="verticalLabelPosition=bottom;aspect=fixed;html=1;shape=mxgraph.salesforce.stream2;" vertex="1" parent="1">
          <mxGeometry x="353.89" y="310" width="60" height="60" as="geometry" />
        </mxCell>
        <mxCell id="T-PEfcv2sNG8sx51Y1Ed-27" value="Mongodb&lt;br&gt;" style="strokeWidth=2;html=1;shape=mxgraph.flowchart.database;whiteSpace=wrap;" vertex="1" parent="1">
          <mxGeometry x="370" y="514.5" width="60" height="60" as="geometry" />
        </mxCell>
        <mxCell id="T-PEfcv2sNG8sx51Y1Ed-28" style="edgeStyle=orthogonalEdgeStyle;rounded=0;orthogonalLoop=1;jettySize=auto;html=1;entryX=0.393;entryY=0.343;entryDx=0;entryDy=0;entryPerimeter=0;" edge="1" parent="1" source="T-PEfcv2sNG8sx51Y1Ed-21" target="T-PEfcv2sNG8sx51Y1Ed-27">
          <mxGeometry relative="1" as="geometry" />
        </mxCell>
      </root>
    </mxGraphModel>
  </diagram>
</mxfile>
